<svg xmlns="http://www.w3.org/2000/svg" viewBox="0 0 150.76 150.76"><defs><style>.cls-1{fill:#0086c3;}.cls-2{fill:#fff;}</style></defs><title>Asset 4</title><g id="Layer_2" data-name="Layer 2"><g id="Layer_1-2" data-name="Layer 1"><g id="Ciicle_Blue" data-name="Ciicle Blue"><circle class="cls-1" cx="75.38" cy="75.38" r="75.38"/><g id="Logo"><path class="cls-2" d="M118.52,70.78v31.37L91.36,117.84h0l-16-9.24v18.5l-6.52-3.76V104.81l0,0,6.48-3.74,12.15,7a7.71,7.71,0,0,0,7.7,0l12.93-7.47A7.7,7.7,0,0,0,112,93.94V79a7.7,7.7,0,0,0-3.85-6.67l-7.32-4.23L96,65.32l-.78-.45a7.71,7.71,0,0,0-7.7,0l-2.69,1.55L74.57,72.34A7.7,7.7,0,0,0,70.72,79v6.47l-3.34,1.93-3.2,1.85V70.78l19.6-11.32,7.57-4.37,11.17,6.45,4.83,2.79Z"/><path class="cls-2" d="M91.35,68V86.46L71.75,97.78l-4.37,2.52-3.2,1.85h0l-8.1-4.68L53,95.7h0l-4.82-2.79L37,86.46V70.77H37V31.23l1.22-.7h0L43,27.74l.48-.28V51.35l20.7-12,22.56,13L80.2,56.2,68,49.17a7.71,7.71,0,0,0-7.7,0L47.4,56.64a7.7,7.7,0,0,0-3.85,6.67V78.24a7.7,7.7,0,0,0,3.85,6.67l7.33,4.24,4.82,2.79.77.44a7.71,7.71,0,0,0,7.05.34c.22-.1.44-.21.65-.34l2.69-1.55L81,84.91a7.7,7.7,0,0,0,3.85-6.67V71.78Z"/></g></g></g></g></svg>